<svg xmlns="http://www.w3.org/2000/svg" viewBox="0 0 360.64 143.52"><defs><style>.cls-1,.cls-3{fill:#b0fa01;}.cls-2{fill:#cfee8a;}.cls-3{font-size:86.52px;font-family:Thamire-Regular, Thamire;}</style></defs><g id="Layer_2" data-name="Layer 2"><g id="Layer_1-2" data-name="Layer 1"><path class="cls-1" d="M104.38,114.9c4.51-6,7.31-12.65,6.8-20.34-.45-6.75-3.06-12.8-6.41-18.56-5.27-9.07-12-17-18.41-25.28-6.15-8-12.27-16-16-25.54C67.19,16.94,66.77,8.7,70.32,0c1.58,12.72,9.92,20.82,17.83,29.12S105,45.25,112.7,54.1c5.12,5.91,9.79,12.11,12.42,19.61a26.63,26.63,0,0,1-2.24,23.5c-4.52,7.56-11,13.2-18.2,18Z"/><path class="cls-1" d="M137.65,66.4c3.13,19.92-4.87,48.66-30.33,65.51A69.15,69.15,0,0,1,3.41,52.85C.27,75,5.44,94.79,20.69,111.25s34.52,23.63,56.82,21.31C109.7,129.2,136.55,102.22,137.65,66.4Z"/><path class="cls-2" d="M86.38,124.51c-21.54,6-41.22,2.34-57.63-13.11-17.89-16.85-23.67-38-16.24-61.47,8.23-26,27.29-39.24,54-41.76C51.72,12.4,39.81,20.72,31.44,33.81A57.35,57.35,0,0,0,23.2,76.64a57.3,57.3,0,0,0,22.55,36.14C57.79,121.84,71.47,125.37,86.38,124.51Z"/><path class="cls-1" d="M102.86,82.75c3.41,5.92,5.76,11.58,4.93,18-1,7.62-7,13.26-15.92,15.21a39.53,39.53,0,0,1-39.17-14.1c1-.53,1.7.15,2.46.47,7,3,14.16,5.63,21.76,6.72a31.72,31.72,0,0,0,9.33.07c8.22-1.25,12.91-6.37,15.1-14.18C102.42,91.15,102.59,87.21,102.86,82.75Z"/><path class="cls-1" d="M104.61,11.78a10.41,10.41,0,0,1,0,20.82,10.41,10.41,0,0,1,0-20.82Z"/><path class="cls-1" d="M142.82,18C126.47,25,117.83,37,118.7,55.33c-2.29-6-3.76-12.18-3.18-18.66.75-8.38,6-14.18,15.27-16.94A46.51,46.51,0,0,1,142.82,18Z"/><path class="cls-1" d="M104.68,115.21c-.18.38-.44.42-.78.22l.48-.53Z"/><text class="cls-3" transform="translate(154.38 102.71) scale(0.76 1)">Fitorb </text></g></g></svg>